# xmcd
#
# Track frame offsets: 
#        150
#        25845
#        48480
#        74740
#
# Disc length: 1127 seconds
#
# Revision: 0
# Processed by: cddbd v1.5.2PL0 Copyright (c) Steve Scherf et al.
# Submitted via: ExactAudioCopy v0.99pb3
#
DISCID=35046504
DTITLE=The High Fidelity - Come Again
DYEAR=1998
DGENRE=Plastique
TTITLE0=Come Again (Parts 1 and 2) (Melody and Freak Out)
TTITLE1=Come Again (Part 3) (Abstract Observation)
TTITLE2=Come Again (Part 4) (F.C. Kahuna mix at Orinoco)
TTITLE3=Come Again (Part 5) (Omnichord Lullaby)
EXTD=
EXTT0=
EXTT1=
EXTT2=
EXTT3=
PLAYORDER=
